<?xml version="1.0" encoding="utf-8"?>
<!-- Generator: Adobe Illustrator 16.0.0, SVG Export Plug-In . SVG Version: 6.00 Build 0)  -->
<!DOCTYPE svg PUBLIC "-//W3C//DTD SVG 1.1//EN" "http://www.w3.org/Graphics/SVG/1.1/DTD/svg11.dtd">
<svg version="1.1" id="Calque_1" xmlns="http://www.w3.org/2000/svg" xmlns:xlink="http://www.w3.org/1999/xlink" x="0px" y="0px"
	 width="162.182px" height="46.986px" viewBox="322.663 6.142 162.182 46.986"
	 enable-background="new 322.663 6.142 162.182 46.986" xml:space="preserve">
<g>
	<path fill="#AD2483" d="M381.213,24.74h5.129l10.838,25.466h-5.816l-2.311-5.671H378.36l-2.312,5.671h-5.67 M387.065,39.623
		l-3.359-8.2l-3.357,8.2H387.065z M399.594,50.206h19.252v-4.948H405.12v-5.312h11.92v-4.947h-11.92v-5.13h13.547v-4.948h-6.449
		l2.035-2.396h-5.863l-2.494,2.396h-6.301 M447.85,50.207h5.562V24.921h-5.562V50.207z M457.965,37.636v-0.069
		c0-7.192,5.672-13.08,13.479-13.08c7.801,0,13.4,5.817,13.4,13.006v0.073c0,7.188-5.674,13.073-13.475,13.073
		C463.565,50.64,457.965,44.826,457.965,37.636 M479.028,37.636v-0.069c0-4.334-3.182-7.949-7.658-7.949
		c-4.482,0-7.588,3.541-7.588,7.875v0.073c0,4.333,3.182,7.944,7.66,7.944C475.92,45.511,479.028,41.971,479.028,37.636
		 M434.514,34.942c-4.52-1.156-5.639-1.72-5.639-3.438V31.43c0-1.269,1.16-2.28,3.361-2.28c1.465,0,2.963,0.438,4.482,1.196V30.34
		c1.635,0.721,3.305,1.098,4.293-0.341c0.93-1.346,0.148-3.021-1.086-3.87c-0.621-0.424-2.312-1.407-4.422-1.76l-0.037,0.007
		c-1.006-0.196-2.057-0.308-3.156-0.308c-5.34,0-9.154,3.138-9.154,7.885v0.072c0,5.194,3.402,6.652,8.668,7.994
		c4.369,1.123,5.268,1.871,5.268,3.328v0.073c0,1.533-1.42,2.466-3.771,2.466c-0.635,0-1.238-0.044-1.828-0.136
		c-2.656-0.484-4.916-2.068-5.457-2.505c-0.416-0.333-1.629-1.43-2.703-2.38v6.341c1.703,1.918,4.193,3.234,7.992,3.606
		c0.627,0.091,1.252,0.154,1.881,0.154c5.643,0,9.604-2.914,9.604-8.106v-0.073C442.809,38.231,439.819,36.326,434.514,34.942
		 M378.131,14.988c0,2.693,1.899,4.755,4.793,4.755c1.636,0,2.941-0.661,3.854-1.441v-3.879h-3.934v1.411h2.359v1.729
		c-0.564,0.423-1.355,0.698-2.227,0.698c-1.891,0-3.145-1.398-3.145-3.298v-0.027c0-1.768,1.293-3.26,2.994-3.26
		c1.178,0,1.875,0.383,2.59,0.99l1.029-1.228c-0.953-0.807-1.939-1.257-3.551-1.257c-2.786,0-4.766,2.194-4.766,4.781v0.024
		 M389.905,10.344h4.119c1.16,0,2.068,0.342,2.662,0.923c0.488,0.504,0.77,1.188,0.77,1.994v0.025c0,1.519-0.912,2.428-2.19,2.799
		l2.495,3.498h-1.926l-2.273-3.219h-2.033v3.219h-1.621 M393.905,14.923c1.163,0,1.899-0.606,1.899-1.546v-0.025
		c0-0.987-0.712-1.531-1.914-1.531h-2.363v3.103H393.905z M399.811,14.988v-0.024c0-2.599,2.004-4.781,4.846-4.781
		c2.836,0,4.814,2.154,4.814,4.754v0.027c0,2.6-2.006,4.779-4.846,4.779C401.79,19.742,399.811,17.589,399.811,14.988
		 M407.77,14.988v-0.024c0-1.795-1.311-3.287-3.145-3.287s-3.115,1.464-3.115,3.26v0.027c0,1.794,1.311,3.273,3.146,3.273
		C406.489,18.237,407.77,16.786,407.77,14.988 M412.215,15.662c0,2.679,1.531,4.064,3.936,4.064c2.414,0,3.971-1.386,3.971-4.142
		v-5.241H418.5v5.318c0,1.703-0.887,2.561-2.324,2.561c-1.453,0-2.336-0.909-2.336-2.626v-5.253h-1.623v5.318 M423.379,10.345h3.646
		c2.164,0,3.508,1.227,3.508,3.087v0.027c0,2.069-1.662,3.155-3.693,3.155h-1.836v2.97h-1.623 M426.891,15.149
		c1.23,0,1.994-0.687,1.994-1.649v-0.028c0-1.084-0.777-1.65-1.994-1.65h-1.887v3.328H426.891z M433.059,19.583h6.914v-1.452h-5.289
		v-2.482h4.633v-1.452h-4.633v-2.403h5.229v-1.449h-6.854 M342.188,53.128c11.029,0,19.973-8.939,19.973-19.975
		c0-3.324-1.012-9.673-6.984-9.676c-5.034,0.001-6.629,4.318-7.812,9.676c-1.594,7.222-3.444,9.12-7.489,9.12
		c-3.805,0-7.199-3.205-7.199-9.12c0-7.141,5.559-12.64,7.604-14.942h-11.338c-4.126,3.66-6.281,8.996-6.279,14.942
		C322.661,44.188,331.155,53.128,342.188,53.128"/>
	<path fill="#E73A40" d="M348.646,6.142c-11.028,0-19.976,8.943-19.976,19.978c0,3.324,1.014,9.674,6.986,9.676
		c5.034,0,6.627-4.32,7.811-9.676c1.596-7.222,3.445-9.12,7.488-9.12c3.805,0,7.201,3.205,7.201,9.12
		c0,7.139-5.556,12.641-7.605,14.942h11.341c4.126-3.658,6.28-8.996,6.278-14.942C368.172,15.085,359.678,6.142,348.646,6.142"/>
	<path fill="#5E256A" d="M360.53,41.062h-9.977c2.049-2.301,7.604-7.803,7.604-14.943c0-0.722-0.051-1.4-0.146-2.041
		c3.478,1.655,4.148,6.368,4.148,9.08C362.161,35.964,361.579,38.636,360.53,41.062 M328.672,26.117c0,2.711,0.676,7.422,4.15,9.078
		c-0.095-0.64-0.146-1.319-0.146-2.039c0-7.144,5.558-12.644,7.602-14.947h-9.977C329.254,20.635,328.672,23.307,328.672,26.117"/>
</g>
</svg>
