<?xml version="1.0" encoding="utf-8"?>
<!-- Generator: Adobe Illustrator 16.0.0, SVG Export Plug-In . SVG Version: 6.00 Build 0)  -->
<!DOCTYPE svg PUBLIC "-//W3C//DTD SVG 1.1//EN" "http://www.w3.org/Graphics/SVG/1.1/DTD/svg11.dtd">
<svg version="1.1" id="Calque_1" xmlns="http://www.w3.org/2000/svg" xmlns:xlink="http://www.w3.org/1999/xlink" x="0px" y="0px"
	 width="484.845px" height="62.016px" viewBox="0 0 484.845 62.016" enable-background="new 0 0 484.845 62.016"
	 xml:space="preserve">
<g>
	<path fill="#D83A1F" d="M101.876,25.319c-3.878,0.015-6.004,11.704-6.334,13.308c-0.345-1.604-2.501-9.886-6.009-9.875
		c-3.505,0.011-6.142,11.402-6.474,13.005c-0.341-1.603-3.3-7.373-5.857-7.366c-3.839,0.01-5.947,10.271-5.957,12.617
		c0.013,1.296,0.25,1.934,0.669,2.063c1.481-0.008,2.149-8.929,5.303-8.938c3.155-0.008,4.333,8.91,6.198,8.903
		c1.875-0.007,2.871-11.99,6.145-12.004c3.272-0.009,3.915,11.976,6.209,11.97c2.697-0.007,1.824-14.646,6.132-14.661
		c4.305-0.008,3.38,14.63,5.846,14.624C109.844,48.96,108.479,25.298,101.876,25.319"/>
	<path fill="#D83A1F" d="M45.924,45.975c-3.714,0-8.092-9.604-8.092-9.604c-5.488-11.944-6.256-11.363-6.909-10.896
		c-2.243,1.603,5.472,27.503,13.402,31.619c2.084,1.083,4.675-2.51,6.652-5.012c4.508-5.713,9.345-17.797,7.398-19.786
		C56.433,30.314,51.022,45.975,45.924,45.975"/>
	<path fill="#F49B21" d="M119.748,48.73c-4.558,0-7.787-2.659-7.787-7.483c0-4.841,3.384-7.403,7.76-7.403
		c1.391,0,2.871,0.514,3.512,1.045l-0.851,2.288c-0.371-0.292-1.303-0.561-2.128-0.561c-2.318,0-4.111,1.651-4.111,4.579
		c0,2.901,1.793,4.579,4.084,4.579c0.773,0,1.727-0.214,2.155-0.584l0.877,2.497C122.645,48.278,121.559,48.73,119.748,48.73
		 M62.75,36.28c-0.306,0.511-1.824,2.981-1.557,5.785c0.267,2.806,1.203,5.204,2.669,4.204c1.47-0.999,2.407-6.74,1.74-9.012
		C64.933,34.986,63.555,34.942,62.75,36.28 M12.368,30.734c-1.164-0.065-10.735,1.999-11.052,6.419
		c-0.315,4.425,0.528,11.368,6.945,11.26c6.42-0.104,7.578,0.108,7.685-2.207c0.101-2.314-2.369-0.868-4.921-2.053
		c-2.555-1.183-1.501-2.791-1.501-2.791s5.053-0.129,4.973-2.344c-0.04-1.181-2.974-1.232-5.392-1.552
		c-2.421-0.313,1.578-1.683,4.207-3.046C15.946,33.049,16.263,30.945,12.368,30.734 M24.442,39.857
		c0.711-0.18,1.489-0.744,1.528-1.88c0.036-1.14-1.43-1.948-2.509-1.792c-0.36,0.056-1.361,0.334-1.217,2.007
		C22.384,39.857,23.73,40.035,24.442,39.857 M21.148,34.248c3.63-0.489,8.52,2.211,8.401,5.993c-0.118,3.786-2.72,5.678-5.085,6.267
		c-2.364,0.595-6.916,0.006-7.333-5.553C16.692,35.054,20.614,34.341,21.148,34.248"/>
	<path fill="#A7B739" d="M134.836,45.883c-0.292,0.157-0.716,0.211-1.277,0.211c-2.103,0-3.979-1.781-3.979-4.896
		c0-2.958,1.821-4.925,4.109-4.925c0.431,0,0.801,0.052,1.147,0.157 M138.962,47.665V27.568h-4.126v6.626
		c-0.533-0.133-1.253-0.239-2.102-0.239c-3.701,0-7.251,2.822-7.251,7.428c0,4.792,3.658,7.345,7.996,7.345
		C135.954,48.728,137.657,48.356,138.962,47.665 M163.055,28.548c-1.225-18.834-44.188-31.371-95.958-28
		C40.438,2.285,16.642,7.901,0,15.513C16.177,9.385,37.55,5.096,61.125,3.927c51.623-2.561,94.239,10.802,95.181,29.845
		c0.247,5.051-2.457,9.991-7.528,14.572C158.22,42.321,163.508,35.492,163.055,28.548"/>
	<path fill="#7E7375" d="M63.247,27.417c1.884-0.256,4.419,1.146,4.359,3.108c-0.063,1.961-1.411,2.944-2.642,3.249
		c-1.221,0.309-3.581,0.004-3.799-2.878C60.936,27.832,62.972,27.463,63.247,27.417 M73.479,61.885h0.694v-3.729
		c0.017-0.202,0.102-0.376,0.26-0.515c0.17-0.163,0.38-0.249,0.629-0.249c0.241,0,0.454,0.086,0.63,0.249
		c0.161,0.148,0.244,0.297,0.253,0.434h0.005v3.81h0.684v-3.626c0-0.248,0.091-0.453,0.266-0.617
		c0.178-0.163,0.388-0.249,0.63-0.249c0.248,0,0.458,0.086,0.633,0.249c0.163,0.148,0.252,0.297,0.255,0.434v3.81h0.695v-3.698
		c-0.014-0.396-0.171-0.731-0.464-1.01c-0.304-0.29-0.677-0.433-1.119-0.433c-0.437,0-0.807,0.143-1.117,0.433l-0.121,0.111
		l-0.113-0.111c-0.31-0.29-0.68-0.433-1.117-0.433c-0.427,0-0.724,0.075-0.889,0.227v0.048h-0.694 M86.766,61.951
		c0.609,0,1.106-0.183,1.499-0.553c0.384-0.362,0.582-0.817,0.593-1.374v-3.014h-0.693v2.97c0,0.365-0.141,0.675-0.417,0.93
		c-0.281,0.261-0.608,0.388-0.992,0.388c-0.414,0-0.757-0.132-1.036-0.391c-0.28-0.252-0.419-0.562-0.419-0.927v-2.97h-0.692v3.014
		c0.013,0.557,0.211,1.015,0.597,1.379C85.594,61.769,86.114,61.951,86.766,61.951 M94.03,57.019v0.646h1.002v4.22h0.691v-4.22
		h1.007v-0.646h-1.007v-1.977h-0.691v1.977 M104.05,61.951c0.613,0,1.11-0.183,1.499-0.553c0.388-0.362,0.585-0.817,0.595-1.374
		v-3.014h-0.69v2.97c0,0.365-0.14,0.675-0.417,0.93c-0.281,0.261-0.611,0.388-0.992,0.388c-0.412,0-0.759-0.132-1.035-0.391
		c-0.279-0.252-0.418-0.562-0.418-0.927v-2.97h-0.694v3.014c0.012,0.557,0.21,1.015,0.596,1.379
		C102.881,61.769,103.399,61.951,104.05,61.951 M115.971,57.954l0.423-0.395c-0.082-0.084-0.135-0.144-0.166-0.169
		c-0.081-0.083-0.166-0.147-0.25-0.218c-0.515-0.384-1.108-0.569-1.792-0.569c-0.788,0-1.463,0.263-2.028,0.789
		c-0.561,0.529-0.845,1.166-0.845,1.91c0,0.751,0.284,1.389,0.845,1.923c0.565,0.526,1.24,0.79,2.028,0.79
		c0.797,0,1.476-0.264,2.042-0.794c0.112-0.104,0.246-0.262,0.399-0.462l-0.704-0.241c-0.085,0.103-0.153,0.173-0.208,0.227
		c-0.419,0.391-0.928,0.589-1.529,0.589c-0.547,0-0.996-0.145-1.34-0.436 M112.38,60.419c-0.231-0.279-0.346-0.651-0.346-1.116
		c0-0.561,0.21-1.036,0.629-1.436c0.426-0.395,0.936-0.593,1.523-0.593c0.496,0,0.89,0.109,1.189,0.325L112.38,60.419z
		 M121.797,61.885h0.696v-7.787h-0.696V61.885z M127.988,61.885h0.689v-7.787h-0.689V61.885z M138.507,57.954l0.42-0.395
		c-0.08-0.084-0.135-0.144-0.164-0.169c-0.084-0.083-0.168-0.147-0.252-0.218c-0.511-0.384-1.108-0.569-1.789-0.569
		c-0.791,0-1.47,0.263-2.03,0.789c-0.562,0.529-0.846,1.166-0.846,1.91c0,0.751,0.284,1.389,0.846,1.923
		c0.56,0.526,1.239,0.79,2.03,0.79c0.797,0,1.477-0.264,2.041-0.794c0.11-0.104,0.245-0.262,0.399-0.462l-0.705-0.241
		c-0.082,0.103-0.153,0.173-0.208,0.227c-0.42,0.391-0.93,0.589-1.527,0.589c-0.552,0-0.999-0.145-1.341-0.436 M134.915,60.419
		c-0.232-0.279-0.347-0.651-0.347-1.116c0-0.561,0.213-1.036,0.635-1.436c0.423-0.395,0.931-0.593,1.519-0.593
		c0.494,0,0.886,0.109,1.186,0.325L134.915,60.419z M182.644,47.707c-1.724,0-2.818-1.063-2.818-2.832v-6.148h-1.771v6.148
		c0,2.745,1.738,4.423,4.574,4.423c2.833,0,4.557-1.678,4.557-4.423v-6.148h-1.768v6.148
		C185.418,46.66,184.355,47.707,182.644,47.707 M197.243,44.262c0-1.906-1.111-3.078-2.971-3.078c-1.348,0-2.369,0.479-2.938,1.592
		v-1.53h-1.724v7.977h1.724V44.98c0.119-1.247,0.944-2.157,2.264-2.177c1.2,0,1.92,0.736,1.92,1.938v4.48h1.725V44.262
		 M206.562,45.896c0.212-2.88-0.929-4.712-3.734-4.712c-2.367,0.018-4.035,1.651-4.035,4.066c0,2.4,1.62,4.033,4.082,4.033
		c1.378,0,2.517-0.494,3.297-1.35l-0.914-0.974c-0.585,0.599-1.381,0.929-2.25,0.929c-1.26,0-2.205-0.766-2.472-1.993H206.562
		 M200.503,44.634c0.181-1.273,1.082-2.067,2.342-2.067c1.303,0,2.158,0.778,2.219,2.067H200.503z M226.18,44.262
		c0-1.906-1.093-3.078-2.923-3.078c-1.454,0-2.521,0.588-3.029,1.92c-0.377-1.213-1.352-1.92-2.777-1.92
		c-1.32,0-2.337,0.479-2.892,1.606v-1.545h-1.711v7.977h1.711v-3.942c0-1.394,0.84-2.444,2.218-2.489
		c1.171,0,1.877,0.735,1.877,1.951v4.48h1.723v-3.942c0-1.394,0.824-2.444,2.191-2.489c1.168,0,1.888,0.735,1.888,1.951v4.48h1.724
		V44.262 M233.997,41.245v3.929c0,1.396-0.81,2.461-2.19,2.49c-1.154,0-1.858-0.734-1.858-1.934v-4.485h-1.725v4.965
		c0,1.905,1.095,3.073,2.923,3.073c1.307-0.015,2.309-0.509,2.85-1.619v1.559h1.725v-7.978 M242.342,47.394
		c-0.465,0.227-0.841,0.345-1.202,0.345c-0.537,0-0.854-0.254-0.854-1.078v-3.825h2.354v-1.291h-2.354v-2.188h-1.708v2.188h-1.125
		v1.291h1.125v4.14c0,1.635,1.033,2.323,2.233,2.323c0.675,0,1.335-0.209,1.965-0.585 M249.88,41.245v3.929
		c0,1.396-0.811,2.461-2.189,2.49c-1.156,0-1.859-0.734-1.859-1.934v-4.485h-1.723v4.965c0,1.905,1.094,3.073,2.922,3.073
		c1.305-0.015,2.308-0.509,2.85-1.619v1.559h1.725v-7.978 M261.162,45.896c0.212-2.88-0.928-4.712-3.733-4.712
		c-2.368,0.018-4.034,1.651-4.034,4.066c0,2.4,1.62,4.033,4.081,4.033c1.378,0,2.519-0.494,3.297-1.35l-0.914-0.974
		c-0.584,0.599-1.38,0.929-2.25,0.929c-1.259,0-2.205-0.766-2.472-1.993H261.162 M255.104,44.634
		c0.182-1.273,1.082-2.067,2.342-2.067c1.303,0,2.158,0.778,2.221,2.067H255.104z M263.032,49.222h1.724V38.095h-1.724V49.222z
		 M267.451,49.222h1.726V38.095h-1.726V49.222z M278.816,45.896c0.211-2.88-0.931-4.712-3.732-4.712
		c-2.37,0.018-4.037,1.651-4.037,4.066c0,2.4,1.621,4.033,4.081,4.033c1.378,0,2.518-0.494,3.297-1.35l-0.914-0.974
		c-0.584,0.599-1.381,0.929-2.25,0.929c-1.258,0-2.205-0.766-2.472-1.993H278.816 M272.756,44.634
		c0.182-1.273,1.083-2.067,2.342-2.067c1.304,0,2.158,0.778,2.22,2.067H272.756z M290.981,38.095v4.529
		c-0.586-0.928-1.546-1.454-2.834-1.454c-2.249,0-3.796,1.635-3.796,4.033c0,2.432,1.529,4.095,3.824,4.095
		c1.277,0,2.236-0.509,2.806-1.438v1.364h1.723V38.095 M290.981,45.264c0,1.517-1.005,2.596-2.445,2.596
		c-1.453,0-2.442-1.079-2.46-2.596c0.018-1.529,1.02-2.623,2.46-2.623S290.981,43.719,290.981,45.264 M300.841,41.245v3.929
		c0,1.396-0.809,2.461-2.188,2.49c-1.154,0-1.858-0.734-1.858-1.934v-4.485h-1.725v4.965c0,1.905,1.094,3.073,2.923,3.073
		c1.305-0.015,2.309-0.509,2.849-1.619v1.559h1.727v-7.978"/>
	<path fill="#AD2483" d="M381.214,24.74h5.128l10.838,25.466h-5.816l-2.311-5.671H378.36l-2.313,5.671h-5.669 M387.065,39.623
		l-3.359-8.2l-3.358,8.2H387.065z M399.595,50.206h19.252v-4.948h-13.728v-5.311h11.92v-4.948h-11.92v-5.13h13.547v-4.948h-6.449
		l2.035-2.395h-5.862l-2.495,2.395h-6.3 M447.85,50.207h5.563V24.921h-5.563V50.207z M457.966,37.636v-0.069
		c0-7.193,5.671-13.08,13.477-13.08c7.801,0,13.401,5.817,13.401,13.005v0.074c0,7.187-5.673,13.073-13.475,13.073
		C463.565,50.64,457.966,44.826,457.966,37.636 M479.027,37.636v-0.069c0-4.334-3.18-7.95-7.658-7.95
		c-4.481,0-7.587,3.541-7.587,7.875v0.074c0,4.333,3.181,7.944,7.66,7.944C475.921,45.511,479.027,41.971,479.027,37.636
		 M434.515,34.942c-4.521-1.157-5.64-1.72-5.64-3.438v-0.074c0-1.269,1.16-2.28,3.361-2.28c1.466,0,2.964,0.438,4.484,1.196V30.34
		c1.634,0.721,3.304,1.098,4.292-0.341c0.929-1.345,0.149-3.021-1.086-3.87c-0.621-0.424-2.313-1.407-4.422-1.76l-0.036,0.007
		c-1.007-0.196-2.057-0.307-3.156-0.307c-5.341,0-9.156,3.137-9.156,7.884v0.073c0,5.194,3.404,6.652,8.668,7.994
		c4.37,1.123,5.268,1.871,5.268,3.328v0.073c0,1.533-1.42,2.466-3.771,2.466c-0.634,0-1.238-0.044-1.828-0.136
		c-2.656-0.484-4.917-2.068-5.458-2.505c-0.415-0.333-1.629-1.429-2.702-2.38v6.341c1.703,1.918,4.193,3.235,7.991,3.607
		c0.627,0.091,1.253,0.154,1.881,0.154c5.643,0,9.604-2.914,9.604-8.106v-0.074C442.81,38.231,439.818,36.326,434.515,34.942
		 M378.132,14.988c0,2.693,1.899,4.754,4.792,4.754c1.636,0,2.941-0.661,3.854-1.441v-3.879h-3.934v1.411h2.359v1.73
		c-0.564,0.423-1.355,0.698-2.226,0.698c-1.891,0-3.145-1.398-3.145-3.298v-0.027c0-1.768,1.294-3.26,2.995-3.26
		c1.178,0,1.875,0.383,2.59,0.99l1.029-1.227c-0.953-0.807-1.94-1.257-3.551-1.257c-2.786,0-4.766,2.194-4.766,4.781V14.988
		 M389.905,10.344h4.119c1.16,0,2.068,0.342,2.663,0.923c0.488,0.504,0.768,1.188,0.768,1.994v0.025c0,1.519-0.912,2.428-2.19,2.799
		l2.495,3.498h-1.925l-2.274-3.219h-2.033v3.219h-1.622 M393.905,14.923c1.163,0,1.899-0.606,1.899-1.546v-0.025
		c0-0.988-0.711-1.531-1.914-1.531h-2.363v3.102H393.905z M399.811,14.988v-0.025c0-2.599,2.004-4.781,4.845-4.781
		c2.836,0,4.815,2.154,4.815,4.754v0.027c0,2.6-2.005,4.779-4.845,4.779C401.79,19.742,399.811,17.589,399.811,14.988
		 M407.77,14.988v-0.025c0-1.795-1.31-3.287-3.144-3.287c-1.835,0-3.115,1.464-3.115,3.26v0.027c0,1.794,1.31,3.274,3.145,3.274
		C406.489,18.237,407.77,16.786,407.77,14.988 M412.216,15.662c0,2.679,1.53,4.065,3.934,4.065c2.415,0,3.971-1.386,3.971-4.142
		v-5.241h-1.62v5.318c0,1.703-0.887,2.561-2.325,2.561c-1.452,0-2.336-0.909-2.336-2.626v-5.253h-1.623V15.662 M423.38,10.345h3.645
		c2.165,0,3.509,1.227,3.509,3.087v0.027c0,2.07-1.662,3.155-3.694,3.155h-1.835v2.97h-1.624 M426.892,15.149
		c1.229,0,1.994-0.687,1.994-1.65v-0.028c0-1.084-0.779-1.65-1.994-1.65h-1.888v3.328H426.892z M433.06,19.583h6.914v-1.452h-5.289
		v-2.482h4.632v-1.452h-4.632v-2.404h5.227v-1.449h-6.852 M342.188,53.128c11.029,0,19.973-8.939,19.973-19.974
		c0-3.325-1.012-9.673-6.984-9.676c-5.035,0.001-6.629,4.318-7.812,9.676c-1.594,7.221-3.444,9.12-7.489,9.12
		c-3.805,0-7.2-3.205-7.2-9.12c0-7.141,5.559-12.64,7.604-14.943h-11.338c-4.126,3.66-6.281,8.996-6.28,14.943
		C322.661,44.188,331.155,53.128,342.188,53.128"/>
	<path fill="#E73A40" d="M348.646,6.142c-11.029,0-19.975,8.943-19.975,19.977c0,3.325,1.013,9.674,6.986,9.676
		c5.034,0,6.627-4.32,7.81-9.676c1.596-7.221,3.445-9.12,7.489-9.12c3.805,0,7.2,3.205,7.2,9.12c0,7.139-5.555,12.641-7.604,14.943
		h11.34c4.126-3.658,6.28-8.996,6.279-14.943C368.172,15.085,359.678,6.142,348.646,6.142"/>
	<path fill="#5E256A" d="M360.53,41.062h-9.977c2.049-2.301,7.603-7.803,7.603-14.944c0-0.721-0.05-1.4-0.146-2.041
		c3.478,1.656,4.149,6.369,4.149,9.08C362.16,35.964,361.578,38.636,360.53,41.062 M328.673,26.117c0,2.711,0.675,7.422,4.15,9.079
		c-0.095-0.64-0.146-1.32-0.146-2.04c0-7.143,5.557-12.643,7.601-14.947h-9.977C329.255,20.635,328.673,23.307,328.673,26.117"/>
</g>
</svg>
